<svg width="207" height="432" fill="none" xmlns="http://www.w3.org/2000/svg"><g clip-path="url(#clip0_409_431)"><path opacity=".1" d="M19.73 362.35c0-21.13 17.13-38.26 38.26-38.26s38.26 17.13 38.26 38.26-17.13 38.26-38.26 38.26c-4.63 0-9.05-.86-13.16-2.37 54.58 43.04 105.61 9.63 115.15-20.55 26.01-82.32-65.68-190.27-98.2-243.6C29.26 80.76-.02 46.94 0 7.27c.01-27.98 15.61-76.08 96.25-70.88 39.57 2.55 66.65 12.76 82.2 20.68l8.99 17.09C180.45-30.5 152.69-46.98 108.6-48 59.66-49.14 57.44-13.32 63.73 2.72c5.69 14.53 114.46 209.4 122.26 226.31 7.8 16.91 21.24 50.94 20.38 95.05-1.31 66.63-58.09 107.19-110.12 107.19-49.15 0-73.72-40.05-76.28-64.76l-.06-.69c-.11-1.19-.18-2.36-.18-3.47z" fill="#F1F1EB"/></g><defs><clipPath id="clip0_409_431"><path fill="#fff" transform="translate(0 -64)" d="M0 0h206.41v495.28H0z"/></clipPath></defs></svg>