<svg width="1770" height="1108" fill="none" xmlns="http://www.w3.org/2000/svg"><path d="M1329.8 600.172c-90.42 285.975-574.267 602.538-1091.802 194.73 38.951 14.277 80.847 22.475 124.78 22.475 200.342 0 362.779-162.298 362.779-362.53 0-200.204-162.41-362.53-362.779-362.53C162.409 92.345 0 254.643 0 454.847c0 10.563.66 21.649 1.68 32.982.192 2.173.357 4.374.577 6.547C26.564 728.553 259.497 1108 725.53 1108c493.28 0 1031.68-384.344 1044.1-1015.655.6-31.332.47-62.114-.39-92.345h-433.16c47.7 207.109 53.59 410.806-6.28 600.172z" fill="#BFAE96" fill-opacity=".1"/></svg>